<mxfile host="app.diagrams.net" modified="2024-01-02T14:22:06.791Z" agent="Mozilla/5.0 (Windows NT 10.0; Win64; x64) AppleWebKit/537.36 (KHTML, like Gecko) Chrome/120.0.0.0 Safari/537.36" version="22.1.16" etag="Xj34WyTNl4kSjh9X9m1Q" type="github">
  <diagram name="Page-1" id="_FnHyHu40F9vVKdBkXFf">
    <mxGraphModel>
      <root>
        <mxCell id="0" />
        <mxCell id="1" parent="0" />
      </root>
    </mxGraphModel>
  </diagram>
</mxfile>
